<mxfile host="app.diagrams.net" agent="Mozilla/5.0 (X11; Linux x86_64) AppleWebKit/537.36 (KHTML, like Gecko) Chrome/131.0.0.0 Safari/537.36" version="28.0.7">
  <diagram name="Page-1" id="Br2r7-MftYsG9-6xezfN">
    <mxGraphModel dx="1188" dy="633" grid="1" gridSize="10" guides="1" tooltips="1" connect="1" arrows="1" fold="1" page="1" pageScale="1" pageWidth="850" pageHeight="1100" math="0" shadow="0">
      <root>
        <mxCell id="0" />
        <mxCell id="1" parent="0" />
        <mxCell id="psF6NIzVZG4a-sC6sIY_-1" value="" style="points=[[0,0],[0.25,0],[0.5,0],[0.75,0],[1,0],[1,0.25],[1,0.5],[1,0.75],[1,1],[0.75,1],[0.5,1],[0.25,1],[0,1],[0,0.75],[0,0.5],[0,0.25]];outlineConnect=0;gradientColor=none;html=1;whiteSpace=wrap;fontSize=12;fontStyle=0;container=1;pointerEvents=0;collapsible=0;recursiveResize=0;shape=mxgraph.aws4.group;grIcon=mxgraph.aws4.group_aws_cloud_alt;strokeColor=#232F3E;fillColor=none;verticalAlign=top;align=left;spacingLeft=30;fontColor=#232F3E;dashed=0;" vertex="1" parent="1">
          <mxGeometry x="190" y="180" width="340" height="480" as="geometry" />
        </mxCell>
        <mxCell id="psF6NIzVZG4a-sC6sIY_-2" style="rounded=0;orthogonalLoop=1;jettySize=auto;html=1;edgeStyle=orthogonalEdgeStyle;startArrow=classic;startFill=1;" edge="1" parent="psF6NIzVZG4a-sC6sIY_-1" source="psF6NIzVZG4a-sC6sIY_-3" target="psF6NIzVZG4a-sC6sIY_-6">
          <mxGeometry relative="1" as="geometry" />
        </mxCell>
        <mxCell id="psF6NIzVZG4a-sC6sIY_-3" value="Source/CICD Bucket" style="sketch=0;points=[[0,0,0],[0.25,0,0],[0.5,0,0],[0.75,0,0],[1,0,0],[0,1,0],[0.25,1,0],[0.5,1,0],[0.75,1,0],[1,1,0],[0,0.25,0],[0,0.5,0],[0,0.75,0],[1,0.25,0],[1,0.5,0],[1,0.75,0]];outlineConnect=0;fontColor=#232F3E;fillColor=#7AA116;strokeColor=#ffffff;dashed=0;verticalLabelPosition=bottom;verticalAlign=top;align=center;html=1;fontSize=12;fontStyle=0;aspect=fixed;shape=mxgraph.aws4.resourceIcon;resIcon=mxgraph.aws4.s3;" vertex="1" parent="psF6NIzVZG4a-sC6sIY_-1">
          <mxGeometry x="70" y="51" width="78" height="78" as="geometry" />
        </mxCell>
        <mxCell id="psF6NIzVZG4a-sC6sIY_-39" style="edgeStyle=orthogonalEdgeStyle;rounded=0;orthogonalLoop=1;jettySize=auto;html=1;" edge="1" parent="psF6NIzVZG4a-sC6sIY_-1" source="psF6NIzVZG4a-sC6sIY_-6" target="psF6NIzVZG4a-sC6sIY_-31">
          <mxGeometry relative="1" as="geometry" />
        </mxCell>
        <mxCell id="psF6NIzVZG4a-sC6sIY_-56" style="edgeStyle=orthogonalEdgeStyle;rounded=0;orthogonalLoop=1;jettySize=auto;html=1;" edge="1" parent="psF6NIzVZG4a-sC6sIY_-1" source="psF6NIzVZG4a-sC6sIY_-6" target="psF6NIzVZG4a-sC6sIY_-55">
          <mxGeometry relative="1" as="geometry" />
        </mxCell>
        <mxCell id="psF6NIzVZG4a-sC6sIY_-6" value="CodePipeline" style="sketch=0;points=[[0,0,0],[0.25,0,0],[0.5,0,0],[0.75,0,0],[1,0,0],[0,1,0],[0.25,1,0],[0.5,1,0],[0.75,1,0],[1,1,0],[0,0.25,0],[0,0.5,0],[0,0.75,0],[1,0.25,0],[1,0.5,0],[1,0.75,0]];outlineConnect=0;fontColor=#232F3E;fillColor=#C925D1;strokeColor=#ffffff;dashed=0;verticalLabelPosition=bottom;verticalAlign=top;align=center;html=1;fontSize=12;fontStyle=0;aspect=fixed;shape=mxgraph.aws4.resourceIcon;resIcon=mxgraph.aws4.codepipeline;" vertex="1" parent="psF6NIzVZG4a-sC6sIY_-1">
          <mxGeometry x="70" y="222" width="78" height="78" as="geometry" />
        </mxCell>
        <mxCell id="psF6NIzVZG4a-sC6sIY_-37" style="edgeStyle=orthogonalEdgeStyle;rounded=0;orthogonalLoop=1;jettySize=auto;html=1;" edge="1" parent="psF6NIzVZG4a-sC6sIY_-1" source="psF6NIzVZG4a-sC6sIY_-10" target="psF6NIzVZG4a-sC6sIY_-6">
          <mxGeometry relative="1" as="geometry" />
        </mxCell>
        <mxCell id="psF6NIzVZG4a-sC6sIY_-10" value="CodePipeline Service Role" style="sketch=0;outlineConnect=0;fontColor=#232F3E;gradientColor=none;fillColor=#DD344C;strokeColor=none;dashed=0;verticalLabelPosition=bottom;verticalAlign=top;align=center;html=1;fontSize=12;fontStyle=0;aspect=fixed;pointerEvents=1;shape=mxgraph.aws4.role;" vertex="1" parent="psF6NIzVZG4a-sC6sIY_-1">
          <mxGeometry x="70" y="390" width="78" height="44" as="geometry" />
        </mxCell>
        <mxCell id="psF6NIzVZG4a-sC6sIY_-11" value="1" style="ellipse;whiteSpace=wrap;html=1;aspect=fixed;fillColor=#fa6800;fontColor=#000000;strokeColor=#C73500;" vertex="1" parent="psF6NIzVZG4a-sC6sIY_-1">
          <mxGeometry x="40" y="222" width="30" height="30" as="geometry" />
        </mxCell>
        <mxCell id="psF6NIzVZG4a-sC6sIY_-13" value="3" style="ellipse;whiteSpace=wrap;html=1;aspect=fixed;fillColor=#fa6800;fontColor=#000000;strokeColor=#C73500;" vertex="1" parent="psF6NIzVZG4a-sC6sIY_-1">
          <mxGeometry x="40" y="51" width="30" height="30" as="geometry" />
        </mxCell>
        <mxCell id="psF6NIzVZG4a-sC6sIY_-15" value="4" style="ellipse;whiteSpace=wrap;html=1;aspect=fixed;fillColor=#fa6800;fontColor=#000000;strokeColor=#C73500;" vertex="1" parent="psF6NIzVZG4a-sC6sIY_-1">
          <mxGeometry x="205" y="225" width="30" height="30" as="geometry" />
        </mxCell>
        <mxCell id="psF6NIzVZG4a-sC6sIY_-31" value="&lt;font style=&quot;font-size: 10px;&quot;&gt;Commands&lt;/font&gt;&lt;div&gt;&lt;font style=&quot;font-size: 10px;&quot;&gt;Action&lt;/font&gt;&lt;/div&gt;" style="sketch=0;points=[[0,0,0],[0.25,0,0],[0.5,0,0],[0.75,0,0],[1,0,0],[0,1,0],[0.25,1,0],[0.5,1,0],[0.75,1,0],[1,1,0],[0,0.25,0],[0,0.5,0],[0,0.75,0],[1,0.25,0],[1,0.5,0],[1,0.75,0]];outlineConnect=0;fontColor=#232F3E;fillColor=#C925D1;strokeColor=#ffffff;dashed=0;verticalLabelPosition=bottom;verticalAlign=top;align=center;html=1;fontSize=12;fontStyle=0;aspect=fixed;shape=mxgraph.aws4.resourceIcon;resIcon=mxgraph.aws4.command_line_interface;" vertex="1" parent="psF6NIzVZG4a-sC6sIY_-1">
          <mxGeometry x="162" y="241" width="40" height="40" as="geometry" />
        </mxCell>
        <mxCell id="psF6NIzVZG4a-sC6sIY_-49" value="2" style="ellipse;whiteSpace=wrap;html=1;aspect=fixed;fillColor=#fa6800;fontColor=#000000;strokeColor=#C73500;" vertex="1" parent="psF6NIzVZG4a-sC6sIY_-1">
          <mxGeometry x="40" y="370" width="30" height="30" as="geometry" />
        </mxCell>
        <mxCell id="psF6NIzVZG4a-sC6sIY_-55" value="CloudWatch" style="sketch=0;points=[[0,0,0],[0.25,0,0],[0.5,0,0],[0.75,0,0],[1,0,0],[0,1,0],[0.25,1,0],[0.5,1,0],[0.75,1,0],[1,1,0],[0,0.25,0],[0,0.5,0],[0,0.75,0],[1,0.25,0],[1,0.5,0],[1,0.75,0]];points=[[0,0,0],[0.25,0,0],[0.5,0,0],[0.75,0,0],[1,0,0],[0,1,0],[0.25,1,0],[0.5,1,0],[0.75,1,0],[1,1,0],[0,0.25,0],[0,0.5,0],[0,0.75,0],[1,0.25,0],[1,0.5,0],[1,0.75,0]];outlineConnect=0;fontColor=#232F3E;fillColor=#E7157B;strokeColor=#ffffff;dashed=0;verticalLabelPosition=bottom;verticalAlign=top;align=center;html=1;fontSize=12;fontStyle=0;aspect=fixed;shape=mxgraph.aws4.resourceIcon;resIcon=mxgraph.aws4.cloudwatch_2;" vertex="1" parent="psF6NIzVZG4a-sC6sIY_-1">
          <mxGeometry x="240" y="322" width="78" height="78" as="geometry" />
        </mxCell>
        <mxCell id="psF6NIzVZG4a-sC6sIY_-57" value="5" style="ellipse;whiteSpace=wrap;html=1;aspect=fixed;fillColor=#fa6800;fontColor=#000000;strokeColor=#C73500;" vertex="1" parent="psF6NIzVZG4a-sC6sIY_-1">
          <mxGeometry x="288" y="290" width="30" height="30" as="geometry" />
        </mxCell>
        <mxCell id="psF6NIzVZG4a-sC6sIY_-19" value="" style="points=[[0,0],[0.25,0],[0.5,0],[0.75,0],[1,0],[1,0.25],[1,0.5],[1,0.75],[1,1],[0.75,1],[0.5,1],[0.25,1],[0,1],[0,0.75],[0,0.5],[0,0.25]];outlineConnect=0;gradientColor=none;html=1;whiteSpace=wrap;fontSize=12;fontStyle=0;container=1;pointerEvents=0;collapsible=0;recursiveResize=0;shape=mxgraph.aws4.group;grIcon=mxgraph.aws4.group_aws_cloud_alt;strokeColor=#232F3E;fillColor=none;verticalAlign=top;align=left;spacingLeft=30;fontColor=#232F3E;dashed=0;" vertex="1" parent="1">
          <mxGeometry x="620" y="180" width="320" height="480" as="geometry" />
        </mxCell>
        <mxCell id="psF6NIzVZG4a-sC6sIY_-20" value="Cross-account Role" style="sketch=0;outlineConnect=0;fontColor=#232F3E;gradientColor=none;fillColor=#DD344C;strokeColor=none;dashed=0;verticalLabelPosition=bottom;verticalAlign=top;align=center;html=1;fontSize=12;fontStyle=0;aspect=fixed;pointerEvents=1;shape=mxgraph.aws4.role;" vertex="1" parent="psF6NIzVZG4a-sC6sIY_-19">
          <mxGeometry x="99" y="60" width="78" height="44" as="geometry" />
        </mxCell>
        <mxCell id="psF6NIzVZG4a-sC6sIY_-21" value="EC2 Instance" style="sketch=0;points=[[0,0,0],[0.25,0,0],[0.5,0,0],[0.75,0,0],[1,0,0],[0,1,0],[0.25,1,0],[0.5,1,0],[0.75,1,0],[1,1,0],[0,0.25,0],[0,0.5,0],[0,0.75,0],[1,0.25,0],[1,0.5,0],[1,0.75,0]];outlineConnect=0;fontColor=#232F3E;fillColor=#ED7100;strokeColor=#ffffff;dashed=0;verticalLabelPosition=bottom;verticalAlign=top;align=center;html=1;fontSize=12;fontStyle=0;aspect=fixed;shape=mxgraph.aws4.resourceIcon;resIcon=mxgraph.aws4.ec2;" vertex="1" parent="psF6NIzVZG4a-sC6sIY_-19">
          <mxGeometry x="50" y="358" width="78" height="78" as="geometry" />
        </mxCell>
        <mxCell id="psF6NIzVZG4a-sC6sIY_-22" value="EC2 Instance Profile" style="sketch=0;outlineConnect=0;fontColor=#232F3E;gradientColor=none;fillColor=#DD344C;strokeColor=none;dashed=0;verticalLabelPosition=bottom;verticalAlign=top;align=center;html=1;fontSize=12;fontStyle=0;aspect=fixed;pointerEvents=1;shape=mxgraph.aws4.role;" vertex="1" parent="psF6NIzVZG4a-sC6sIY_-19">
          <mxGeometry x="210" y="375" width="78" height="44" as="geometry" />
        </mxCell>
        <mxCell id="psF6NIzVZG4a-sC6sIY_-23" value="6" style="ellipse;whiteSpace=wrap;html=1;aspect=fixed;fillColor=#fa6800;fontColor=#000000;strokeColor=#C73500;" vertex="1" parent="psF6NIzVZG4a-sC6sIY_-19">
          <mxGeometry x="89" y="40" width="30" height="30" as="geometry" />
        </mxCell>
        <mxCell id="psF6NIzVZG4a-sC6sIY_-43" style="edgeStyle=orthogonalEdgeStyle;rounded=0;orthogonalLoop=1;jettySize=auto;html=1;" edge="1" parent="psF6NIzVZG4a-sC6sIY_-19" target="psF6NIzVZG4a-sC6sIY_-21">
          <mxGeometry relative="1" as="geometry">
            <mxPoint x="167" y="317" as="sourcePoint" />
            <Array as="points">
              <mxPoint x="167" y="337" />
              <mxPoint x="89" y="337" />
            </Array>
          </mxGeometry>
        </mxCell>
        <mxCell id="psF6NIzVZG4a-sC6sIY_-54" style="edgeStyle=orthogonalEdgeStyle;rounded=0;orthogonalLoop=1;jettySize=auto;html=1;exitX=0.5;exitY=1;exitDx=0;exitDy=0;exitPerimeter=0;" edge="1" parent="psF6NIzVZG4a-sC6sIY_-19" source="psF6NIzVZG4a-sC6sIY_-29" target="psF6NIzVZG4a-sC6sIY_-22">
          <mxGeometry relative="1" as="geometry">
            <mxPoint x="167" y="317" as="sourcePoint" />
            <Array as="points">
              <mxPoint x="167" y="337" />
              <mxPoint x="249" y="337" />
            </Array>
          </mxGeometry>
        </mxCell>
        <mxCell id="psF6NIzVZG4a-sC6sIY_-29" value="CloudFormation" style="sketch=0;points=[[0,0,0],[0.25,0,0],[0.5,0,0],[0.75,0,0],[1,0,0],[0,1,0],[0.25,1,0],[0.5,1,0],[0.75,1,0],[1,1,0],[0,0.25,0],[0,0.5,0],[0,0.75,0],[1,0.25,0],[1,0.5,0],[1,0.75,0]];points=[[0,0,0],[0.25,0,0],[0.5,0,0],[0.75,0,0],[1,0,0],[0,1,0],[0.25,1,0],[0.5,1,0],[0.75,1,0],[1,1,0],[0,0.25,0],[0,0.5,0],[0,0.75,0],[1,0.25,0],[1,0.5,0],[1,0.75,0]];outlineConnect=0;fontColor=#232F3E;fillColor=#E7157B;strokeColor=#ffffff;dashed=0;verticalLabelPosition=bottom;verticalAlign=top;align=center;html=1;fontSize=12;fontStyle=0;aspect=fixed;shape=mxgraph.aws4.resourceIcon;resIcon=mxgraph.aws4.cloudformation;" vertex="1" parent="psF6NIzVZG4a-sC6sIY_-19">
          <mxGeometry x="128" y="222" width="78" height="78" as="geometry" />
        </mxCell>
        <mxCell id="psF6NIzVZG4a-sC6sIY_-42" style="edgeStyle=orthogonalEdgeStyle;rounded=0;orthogonalLoop=1;jettySize=auto;html=1;" edge="1" parent="psF6NIzVZG4a-sC6sIY_-19" source="psF6NIzVZG4a-sC6sIY_-30" target="psF6NIzVZG4a-sC6sIY_-29">
          <mxGeometry relative="1" as="geometry" />
        </mxCell>
        <mxCell id="psF6NIzVZG4a-sC6sIY_-30" value="EC2 Instance Profile" style="sketch=0;outlineConnect=0;fontColor=#232F3E;gradientColor=none;fillColor=#DD344C;strokeColor=none;dashed=0;verticalLabelPosition=bottom;verticalAlign=top;align=center;html=1;fontSize=12;fontStyle=0;aspect=fixed;pointerEvents=1;shape=mxgraph.aws4.role;" vertex="1" parent="psF6NIzVZG4a-sC6sIY_-19">
          <mxGeometry x="220" y="150" width="78" height="44" as="geometry" />
        </mxCell>
        <mxCell id="psF6NIzVZG4a-sC6sIY_-24" value="7" style="ellipse;whiteSpace=wrap;html=1;aspect=fixed;fillColor=#fa6800;fontColor=#000000;strokeColor=#C73500;" vertex="1" parent="psF6NIzVZG4a-sC6sIY_-19">
          <mxGeometry x="280" y="130" width="30" height="30" as="geometry" />
        </mxCell>
        <mxCell id="psF6NIzVZG4a-sC6sIY_-50" value="8" style="ellipse;whiteSpace=wrap;html=1;aspect=fixed;fillColor=#fa6800;fontColor=#000000;strokeColor=#C73500;" vertex="1" parent="psF6NIzVZG4a-sC6sIY_-19">
          <mxGeometry x="89" y="222" width="30" height="30" as="geometry" />
        </mxCell>
        <mxCell id="psF6NIzVZG4a-sC6sIY_-51" value="9" style="ellipse;whiteSpace=wrap;html=1;aspect=fixed;fillColor=#fa6800;fontColor=#000000;strokeColor=#C73500;" vertex="1" parent="psF6NIzVZG4a-sC6sIY_-19">
          <mxGeometry x="152" y="365" width="30" height="30" as="geometry" />
        </mxCell>
        <mxCell id="psF6NIzVZG4a-sC6sIY_-25" style="edgeStyle=orthogonalEdgeStyle;rounded=0;orthogonalLoop=1;jettySize=auto;html=1;" edge="1" parent="1" source="psF6NIzVZG4a-sC6sIY_-20" target="psF6NIzVZG4a-sC6sIY_-31">
          <mxGeometry relative="1" as="geometry">
            <Array as="points">
              <mxPoint x="450" y="262" />
              <mxPoint x="450" y="400" />
              <mxPoint x="372" y="400" />
            </Array>
            <mxPoint x="498" y="400" as="targetPoint" />
          </mxGeometry>
        </mxCell>
        <mxCell id="psF6NIzVZG4a-sC6sIY_-41" style="edgeStyle=orthogonalEdgeStyle;rounded=0;orthogonalLoop=1;jettySize=auto;html=1;" edge="1" parent="1" source="psF6NIzVZG4a-sC6sIY_-31" target="psF6NIzVZG4a-sC6sIY_-29">
          <mxGeometry relative="1" as="geometry" />
        </mxCell>
      </root>
    </mxGraphModel>
  </diagram>
</mxfile>
